<svg width="1503" height="887" viewBox="0 0 1503 887" fill="none" xmlns="http://www.w3.org/2000/svg">
<g clip-path="url(#clip0_101_5)">
<mask id="mask0_101_5" style="mask-type:alpha" maskUnits="userSpaceOnUse" x="0" y="0" width="887" height="887">
<circle cx="443.5" cy="443.5" r="443.5" fill="#70B5EC"/>
</mask>
<g mask="url(#mask0_101_5)">
<rect x="-3.9895" y="-1.32983" width="890.99" height="888.33" fill="#70B5EC"/>
<circle cx="798.839" cy="364.127" r="137.808" fill="#3F9AE0"/>
<circle cx="644.225" cy="388.776" r="54.8992" fill="#176FC9" fill-opacity="0.8"/>
<circle cx="323.793" cy="122.123" r="52.6584" fill="#3B92E1"/>
<circle cx="188.226" cy="336.117" r="33.6117" fill="#0782D5" fill-opacity="0.6"/>
<circle cx="164.698" cy="485.129" r="99.7148" fill="#97CBF3" fill-opacity="0.8"/>
<circle cx="243.125" cy="382.053" r="54.8992" fill="#3E90DD" fill-opacity="0.6"/>
<circle cx="86.2701" cy="639.743" r="70.5847" fill="#519BD1" fill-opacity="0.8"/>
<circle cx="477.287" cy="817.886" r="49.2972" fill="#3A9DE2"/>
</g>
</g>
<path d="M362.63 621.92C330.402 621.92 305.89 611.48 289.096 590.6C272.755 569.72 264.584 539.988 264.584 501.405C264.584 462.822 270.712 426.055 282.968 391.103C295.677 356.152 315.423 326.647 342.204 302.589C368.985 278.078 400.305 265.822 436.165 265.822C451.598 265.822 474.294 269.454 504.252 276.716L517.87 280.121L551.233 137.137H642.47L532.168 613.75H443.654L449.782 578.344C440.704 588.784 427.54 598.77 410.291 608.303C393.043 617.381 377.155 621.92 362.63 621.92ZM501.529 352.974C475.202 346.619 453.64 343.442 436.846 343.442C420.505 343.442 405.979 352.52 393.269 370.677C381.014 388.38 371.935 409.033 366.034 432.637C360.134 456.24 357.183 478.936 357.183 500.724C357.183 529.775 368.758 544.3 391.908 544.3C399.17 544.3 409.157 540.215 421.866 532.045C435.03 523.874 446.151 515.704 455.229 507.533L468.847 495.277L501.529 352.974ZM716.223 506.852C716.223 518.2 720.762 527.278 729.84 534.087C739.372 540.896 751.174 544.3 765.246 544.3C796.566 544.3 828.567 542.031 861.249 537.492L878.952 535.449L868.739 602.856C826.524 615.565 784.764 621.92 743.458 621.92C702.151 621.92 671.966 612.615 652.901 594.004C634.291 575.394 624.985 548.159 624.985 512.299C624.985 476.44 628.617 444.439 635.879 416.296C643.142 388.153 653.809 362.733 667.88 340.038C682.406 317.342 701.924 299.412 726.436 286.248C751.401 272.631 779.771 265.822 811.545 265.822C890.981 265.822 930.698 299.639 930.698 367.273C930.698 410.395 916.173 440.126 887.122 456.467C858.072 472.808 809.73 480.979 742.096 480.979H718.265C716.903 486.426 716.223 495.05 716.223 506.852ZM756.394 413.572C787.715 413.572 809.503 410.168 821.758 403.359C834.468 396.55 840.823 384.975 840.823 368.634C840.823 349.116 829.475 339.357 806.779 339.357C766.38 339.357 740.28 364.095 728.478 413.572H756.394ZM978.078 273.312H1070.68L1097.23 377.486L1168.04 273.312H1260.64L1126.51 450.339L1180.98 613.75H1088.38L1061.83 513.661L992.376 613.75H897.734L1031.19 443.531L978.078 273.312ZM1348.26 525.236C1348.26 537.945 1354.84 544.3 1368.01 544.3L1414.31 540.896L1406.82 606.26C1382.76 616.7 1357.79 621.92 1331.92 621.92C1306.5 621.92 1286.98 615.111 1273.37 601.494C1260.2 587.422 1253.62 570.628 1253.62 551.109C1253.62 531.137 1257.02 507.079 1263.83 478.936L1293.79 350.932H1257.02L1277.45 273.312H1312.17L1331.92 186.16H1423.16L1403.41 273.312H1474.9L1455.84 350.932H1385.03L1353.71 487.107C1350.08 502.54 1348.26 515.25 1348.26 525.236Z" fill="white"/>
<path d="M522.174 713.882V742.99C522.259 744.862 522.727 746.266 523.578 747.203C524.515 748.054 525.919 748.607 527.791 748.862L527.408 759.458C520.089 759.458 514.429 757.884 510.429 754.735C503.62 757.884 496.769 759.458 489.875 759.458C477.194 759.458 470.853 752.692 470.853 739.16C470.853 732.691 472.555 728.01 475.96 725.117C479.449 722.223 484.769 720.478 491.918 719.882L508.386 718.478V713.882C508.386 710.478 507.62 708.095 506.088 706.733C504.642 705.371 502.471 704.69 499.578 704.69C494.131 704.69 487.322 705.031 479.151 705.712L475.066 705.967L474.555 696.137C483.832 693.924 492.343 692.818 500.088 692.818C507.918 692.818 513.536 694.52 516.94 697.924C520.429 701.243 522.174 706.563 522.174 713.882ZM493.577 729.713C487.705 730.223 484.769 733.415 484.769 739.287C484.769 745.16 487.364 748.096 492.556 748.096C496.812 748.096 501.322 747.415 506.088 746.054L508.386 745.288V728.308L493.577 729.713ZM619.781 667.668V758.054H605.994V754.735C599.781 757.884 594.078 759.458 588.887 759.458C580.546 759.458 574.418 756.948 570.503 751.926C566.673 746.905 564.758 738.479 564.758 726.649C564.758 714.818 566.886 706.222 571.141 700.86C575.482 695.499 582.206 692.818 591.312 692.818C594.376 692.818 599.227 693.371 605.866 694.477V667.668H619.781ZM603.696 744.777L605.866 743.883V706.095C600.759 705.244 596.036 704.818 591.695 704.818C583.099 704.818 578.801 711.967 578.801 726.266C578.801 734.096 579.78 739.543 581.737 742.607C583.78 745.585 586.972 747.075 591.312 747.075C595.653 747.075 599.781 746.309 603.696 744.777ZM682.087 746.564L685.661 746.181L685.916 756.522C676.214 758.48 667.618 759.458 660.128 759.458C650.681 759.458 643.872 756.862 639.702 751.671C635.617 746.479 633.574 738.181 633.574 726.776C633.574 704.137 642.808 692.818 661.277 692.818C679.15 692.818 688.087 702.563 688.087 722.053L687.193 732.01H647.617C647.702 737.287 648.851 741.16 651.064 743.628C653.277 746.096 657.405 747.33 663.448 747.33C669.49 747.33 675.703 747.075 682.087 746.564ZM674.427 721.287C674.427 714.989 673.405 710.605 671.363 708.137C669.405 705.584 666.043 704.307 661.277 704.307C656.511 704.307 653.022 705.627 650.809 708.265C648.681 710.903 647.575 715.244 647.49 721.287H674.427ZM715.383 758.054H701.468V694.222H715.255V698.179C721.468 694.605 727.341 692.818 732.873 692.818C741.384 692.818 747.171 695.243 750.235 700.094C753.384 704.861 754.959 712.776 754.959 723.84V758.054H741.171V724.223C741.171 717.329 740.405 712.435 738.873 709.542C737.426 706.648 734.405 705.201 729.809 705.201C725.468 705.201 721.298 706.052 717.298 707.754L715.383 708.52V758.054ZM774.606 701.116C779.032 695.584 786.351 692.818 796.564 692.818C806.777 692.818 814.054 695.584 818.395 701.116C822.821 706.648 825.033 714.946 825.033 726.01C825.033 737.075 822.906 745.415 818.65 751.032C814.395 756.65 807.033 759.458 796.564 759.458C786.096 759.458 778.734 756.65 774.478 751.032C770.223 745.415 768.095 737.075 768.095 726.01C768.095 714.946 770.266 706.648 774.606 701.116ZM785.075 742.607C787.032 746.011 790.862 747.713 796.564 747.713C802.267 747.713 806.097 746.011 808.054 742.607C810.012 739.202 810.99 733.628 810.99 725.883C810.99 718.138 809.927 712.648 807.799 709.414C805.756 706.18 802.011 704.563 796.564 704.563C791.117 704.563 787.33 706.18 785.202 709.414C783.16 712.648 782.138 718.138 782.138 725.883C782.138 733.628 783.117 739.202 785.075 742.607ZM883.631 706.095V758.054H869.844V706.095H862.439V694.222H869.844V690.137C869.844 681.03 871.163 674.774 873.801 671.37C876.44 667.966 881.121 666.263 887.844 666.263L901.632 667.54L901.504 678.902C897.334 678.732 893.844 678.647 891.036 678.647C888.312 678.647 886.397 679.498 885.291 681.2C884.185 682.817 883.631 685.839 883.631 690.264V694.222H900.483V706.095H883.631ZM911.041 758.054V694.222H924.829V701.882C932.063 697.201 939.298 694.179 946.532 692.818V706.733C939.212 708.18 932.957 710.052 927.765 712.35L924.957 713.499V758.054H911.041ZM1004.41 713.882V742.99C1004.49 744.862 1004.96 746.266 1005.81 747.203C1006.75 748.054 1008.15 748.607 1010.02 748.862L1009.64 759.458C1002.32 759.458 996.661 757.884 992.66 754.735C985.852 757.884 979 759.458 972.107 759.458C959.425 759.458 953.085 752.692 953.085 739.16C953.085 732.691 954.787 728.01 958.191 725.117C961.681 722.223 967 720.478 974.149 719.882L990.618 718.478V713.882C990.618 710.478 989.852 708.095 988.32 706.733C986.873 705.371 984.703 704.69 981.809 704.69C976.362 704.69 969.553 705.031 961.383 705.712L957.298 705.967L956.787 696.137C966.064 693.924 974.575 692.818 982.32 692.818C990.15 692.818 995.767 694.52 999.171 697.924C1002.66 701.243 1004.41 706.563 1004.41 713.882ZM975.809 729.713C969.936 730.223 967 733.415 967 739.287C967 745.16 969.596 748.096 974.788 748.096C979.043 748.096 983.554 747.415 988.32 746.054L990.618 745.288V728.308L975.809 729.713ZM1035.79 758.054H1021.87V694.222H1035.66V698.179C1041.71 694.605 1047.24 692.818 1052.26 692.818C1059.66 692.818 1065.07 694.903 1068.47 699.073C1076.22 694.903 1083.92 692.818 1091.58 692.818C1099.24 692.818 1104.64 695.201 1107.79 699.967C1110.94 704.648 1112.52 712.606 1112.52 723.84V758.054H1098.73V724.223C1098.73 717.329 1098.01 712.435 1096.56 709.542C1095.2 706.648 1092.3 705.201 1087.88 705.201C1084.05 705.201 1079.92 706.052 1075.49 707.754L1073.32 708.648C1074 710.35 1074.34 715.797 1074.34 724.989V758.054H1060.56V725.244C1060.56 717.67 1059.88 712.435 1058.51 709.542C1057.15 706.648 1054.17 705.201 1049.58 705.201C1045.32 705.201 1041.36 706.052 1037.7 707.754L1035.79 708.52V758.054ZM1174.29 746.564L1177.87 746.181L1178.12 756.522C1168.42 758.48 1159.82 759.458 1152.33 759.458C1142.89 759.458 1136.08 756.862 1131.91 751.671C1127.82 746.479 1125.78 738.181 1125.78 726.776C1125.78 704.137 1135.01 692.818 1153.48 692.818C1171.36 692.818 1180.29 702.563 1180.29 722.053L1179.4 732.01H1139.82C1139.91 737.287 1141.06 741.16 1143.27 743.628C1145.48 746.096 1149.61 747.33 1155.65 747.33C1161.7 747.33 1167.91 747.075 1174.29 746.564ZM1166.63 721.287C1166.63 714.989 1165.61 710.605 1163.57 708.137C1161.61 705.584 1158.25 704.307 1153.48 704.307C1148.72 704.307 1145.23 705.627 1143.01 708.265C1140.89 710.903 1139.78 715.244 1139.69 721.287H1166.63ZM1188.69 694.222H1202.35L1212.44 746.181H1214.99L1227.12 695.499H1241.42L1253.55 746.181H1256.1L1266.06 694.222H1279.85L1266.31 758.054H1244.23L1234.27 714.265L1224.31 758.054H1202.23L1188.69 694.222ZM1295.11 701.116C1299.54 695.584 1306.86 692.818 1317.07 692.818C1327.28 692.818 1334.56 695.584 1338.9 701.116C1343.33 706.648 1345.54 714.946 1345.54 726.01C1345.54 737.075 1343.41 745.415 1339.16 751.032C1334.9 756.65 1327.54 759.458 1317.07 759.458C1306.6 759.458 1299.24 756.65 1294.98 751.032C1290.73 745.415 1288.6 737.075 1288.6 726.01C1288.6 714.946 1290.77 706.648 1295.11 701.116ZM1305.58 742.607C1307.54 746.011 1311.37 747.713 1317.07 747.713C1322.77 747.713 1326.6 746.011 1328.56 742.607C1330.52 739.202 1331.5 733.628 1331.5 725.883C1331.5 718.138 1330.43 712.648 1328.3 709.414C1326.26 706.18 1322.52 704.563 1317.07 704.563C1311.62 704.563 1307.84 706.18 1305.71 709.414C1303.67 712.648 1302.64 718.138 1302.64 725.883C1302.64 733.628 1303.62 739.202 1305.58 742.607ZM1359.36 758.054V694.222H1373.15V701.882C1380.38 697.201 1387.62 694.179 1394.85 692.818V706.733C1387.53 708.18 1381.28 710.052 1376.09 712.35L1373.28 713.499V758.054H1359.36ZM1419.41 758.054H1405.49V667.668H1419.41V719.882L1427.32 719.116L1442.39 694.222H1457.96L1439.58 724.095L1458.98 758.054H1443.28L1427.7 731.117L1419.41 732.01V758.054Z" fill="white"/>
<defs>
<clipPath id="clip0_101_5">
<rect width="887" height="887" fill="white"/>
</clipPath>
</defs>
</svg>
